<?xml version="1.0" encoding="UTF-8" standalone="no"?>
<svg
   xmlns:dc="http://purl.org/dc/elements/1.1/"
   xmlns:cc="http://creativecommons.org/ns#"
   xmlns:rdf="http://www.w3.org/1999/02/22-rdf-syntax-ns#"
   xmlns:svg="http://www.w3.org/2000/svg"
   xmlns="http://www.w3.org/2000/svg"
   xmlns:sodipodi="http://sodipodi.sourceforge.net/DTD/sodipodi-0.dtd"
   xmlns:inkscape="http://www.inkscape.org/namespaces/inkscape"
   sodipodi:docname="surak.svg"
   inkscape:version="1.0beta1 (32d4812, 2019-09-19)"
   id="svg32"
   version="1.1"
   viewBox="0 0 210 297"
   height="297mm"
   width="210mm">
  <defs
     id="defs26" />
  <sodipodi:namedview
     inkscape:window-maximized="0"
     inkscape:window-y="23"
     inkscape:window-x="0"
     inkscape:window-height="855"
     inkscape:window-width="1440"
     showgrid="false"
     inkscape:document-rotation="0"
     inkscape:current-layer="layer1"
     inkscape:document-units="mm"
     inkscape:cy="484.28571"
     inkscape:cx="397.14286"
     inkscape:zoom="0.63431373"
     inkscape:pageshadow="2"
     inkscape:pageopacity="0.0"
     borderopacity="1.0"
     bordercolor="#666666"
     pagecolor="#ffffff"
     id="base" />
  <metadata
     id="metadata29">
    <rdf:RDF>
      <cc:Work
         rdf:about="">
        <dc:format>image/svg+xml</dc:format>
        <dc:type
           rdf:resource="http://purl.org/dc/dcmitype/StillImage" />
        <dc:title></dc:title>
      </cc:Work>
    </rdf:RDF>
  </metadata>
  <g
     id="layer1"
     inkscape:groupmode="layer"
     inkscape:label="Layer 1">
    <path
       style="opacity:1;fill:#e6e6e6;fill-opacity:1;stroke-width:2.19269;stop-opacity:1"
       d="m 53.511663,231.57127 c -15.753588,-3.61569 -24.616872,-9.81601 -33.152651,-23.192 -6.080792,-9.5289 -6.675682,-13.67955 -1.6862,-11.7649 2.528169,0.97015 3.171445,0.41317 2.261503,-1.9581 -0.699414,-1.82264 -0.382412,-3.31389 0.704448,-3.31389 1.086861,0 2.573566,1.88242 3.303791,4.18315 1.321353,4.16321 16.24332,18.66623 24.327679,23.64466 3.893038,2.39737 3.701108,2.63798 -2.33663,2.92932 l -6.57806,0.31741 6.57806,2.05489 c 13.333247,4.16511 24.48472,-1.27775 31.874033,-15.55722 2.54975,-4.92727 13.413633,-72.5096 11.926013,-74.18967 -0.342819,-0.38717 -14.97328,4.25298 -32.512131,10.31145 -30.707323,10.60726 -31.941111,10.85063 -33.300178,6.56859 -0.776247,-2.44574 -0.901835,-4.95632 -0.279085,-5.57907 1.852464,-1.85247 63.631246,-22.65828 67.224112,-22.63969 4.132022,0.0215 8.698173,9.42512 6.526142,13.44027 -0.88894,1.64327 -2.8559,16.30834 -4.37103,32.58904 -2.520736,27.08636 -2.428342,30.34643 1.08749,38.37202 2.11325,4.82391 4.30954,7.53186 4.88066,6.01767 0.755261,-2.00243 2.562691,-1.55405 6.629011,1.64452 3.08021,2.42289 8.90395,4.39758 12.96933,4.39758 7.69492,0 9.89406,2.95095 3.91033,5.24713 -5.82463,2.23512 -8.83676,1.53513 -15.31215,-3.55842 -3.41869,-2.68914 -8.399951,-4.60313 -11.069461,-4.25331 -3.31242,0.43408 -5.308943,-0.79843 -6.287438,-3.88139 -1.77065,-5.57882 -4.809998,-5.8348 -6.488452,-0.54646 -1.918997,6.04623 -14.791993,17.52254 -20.962047,18.68773 -3.014944,0.56936 -7.455134,0.58227 -9.867089,0.0287 z m -7.857127,-12.29551 c -0.502491,-0.31434 -3.380392,-2.53444 -6.395337,-4.93354 l -5.481716,-4.36201 4.177042,4.93355 c 2.297372,2.71345 5.175273,4.93354 6.395334,4.93354 1.220064,0 1.807166,-0.25719 1.304677,-0.57154 z m 93.142004,-0.74995 c 8.62276,-8.62923 14.46429,-18.49382 14.47417,-24.44257 0.007,-4.04779 1.22202,-4.93355 6.76898,-4.93355 7.76166,0 7.91974,5.04554 0.1937,6.18239 -2.61899,0.38537 -4.7618,1.96407 -4.7618,3.50822 0,4.33197 -12.41887,20.46384 -18.02086,23.40874 -4.21275,2.21459 -4.00032,1.6269 1.34581,-3.72323 z m 49.99341,-68.29631 c -0.74961,-21.81841 -8.40753,-48.26308 -16.9853,-58.654364 -4.5377,-5.497064 -5.77989,-6.037563 -7.55894,-3.28903 -1.81969,2.811302 -2.13378,2.731679 -2.16248,-0.548172 -0.0328,-3.751935 -4.43656,-5.039493 -14.15059,-4.137341 -2.33746,0.217076 -3.56739,-0.287847 -2.73317,-1.122066 0.83422,-0.834216 -0.0253,-4.062296 -1.9101,-7.173508 l -3.42686,-5.656749 4.31881,4.933544 c 2.4466,2.794847 6.84447,4.933545 10.14499,4.933545 5.04371,0 5.61607,-0.662588 4.26174,-4.933545 -2.6388,-8.321631 -11.57242,-21.071347 -17.474,-24.938206 -3.83526,-2.512961 -4.89117,-4.381085 -3.34835,-5.923912 1.54283,-1.542826 3.75738,-0.921433 7.02244,1.970466 6.96988,6.173282 17.26151,23.009012 17.26151,28.237506 0,2.914848 2.34413,5.554783 6.60841,7.44234 13.60934,6.024075 26.54615,33.333002 29.50402,62.281432 1.49261,14.608 1.4433,14.80064 -3.78867,14.80064 -4.61354,0 -5.33759,-1.06629 -5.58346,-8.22258 z m -40.98139,-9.00548 c -9.97046,-3.89322 -15.60175,-7.3614 -16.09279,-9.91117 -0.60926,-3.16362 0.0247,-3.52371 3.27765,-1.86167 2.21816,1.13333 11.18666,4.75495 19.93,8.04804 8.74334,3.29309 15.89698,6.88789 15.89698,7.98843 0,3.31548 -6.85418,2.04554 -23.01184,-4.26363 z m 16.43378,1.87925 c -1.80897,-1.16904 -4.7691,-2.07129 -6.57806,-2.00499 -2.16869,0.0795 -1.79524,0.76244 1.09634,2.00499 6.02788,2.59027 9.48987,2.59027 5.48172,0 z M 107.47367,126.3477 c -5.20268,-2.26895 -6.7407,-3.93423 -5.1254,-5.54953 3.20904,-3.20904 14.55432,0.82226 15.46025,5.49348 0.84102,4.33646 -0.5032,4.34375 -10.33485,0.056 z m -15.589991,-7.36398 c 0,-1.20598 0.986709,-2.19269 2.19269,-2.19269 1.20597,0 2.19268,0.98671 2.19268,2.19269 0,1.20598 -0.98671,2.19269 -2.19268,2.19269 -1.205981,0 -2.19269,-0.98671 -2.19269,-2.19269 z m 0,-7.79978 c 0,-4.5873 4.66568,-22.897834 5.83457,-22.897834 0.51072,0 2.16214,1.152313 3.669811,2.560696 4.28743,4.00506 -0.32839,23.751548 -5.552021,23.751548 -2.1738,0 -3.95236,-1.53649 -3.95236,-3.41441 z m 59.531071,-10.11055 c -0.1807,-3.217806 -0.89639,-7.657996 -1.59043,-9.867093 -1.1928,-3.796573 -1.12508,-3.803333 1.23659,-0.123404 1.37417,2.141215 2.08987,6.581406 1.59044,9.867087 l -0.90806,5.97396 z"
       id="path68"
       inkscape:connector-curvature="0" />
    <path
       style="opacity:1;fill:#8c8c8c;fill-opacity:1;stroke-width:2.19269;stop-opacity:1"
       d="m 107.99726,233.15945 c -5.00628,-2.27317 -11.366951,-7.19612 -14.134831,-10.93987 l -5.03251,-6.80684 -7.792038,7.43975 c -10.247778,9.78446 -15.608497,12.34362 -25.856439,12.34362 -15.54642,0 -30.893565,-12.60294 -41.948151,-34.44746 -6.6451744,-13.13126 -6.1566994,-15.98433 2.736681,-15.98433 6.287456,0 7.853999,1.0758 10.353505,7.11014 1.619816,3.91058 6.381052,11.06422 10.580527,15.89698 l 7.635406,8.78683 -9.208713,-8.65834 c -5.064793,-4.76209 -9.772814,-10.43567 -10.462269,-12.60795 -0.689455,-2.17228 -2.142804,-3.9496 -3.229665,-3.9496 -1.08686,0 -1.403862,1.49125 -0.704448,3.31389 0.909942,2.37127 0.266666,2.92825 -2.261503,1.9581 -4.989482,-1.91465 -4.394592,2.236 1.6862,11.7649 9.804447,15.36405 22.147249,22.79127 38.591875,23.22246 7.044172,0.18472 10.087953,-1.16623 16.390124,-7.27454 4.256696,-4.12575 8.306601,-9.2883 8.999788,-11.47234 1.678454,-5.28834 4.717802,-5.03236 6.488452,0.54646 0.978495,3.08296 2.975018,4.31547 6.287438,3.88139 2.66951,-0.34982 7.650771,1.56417 11.069461,4.25331 3.41869,2.68915 7.80948,4.87424 9.7573,4.85578 5.31316,-0.0504 9.78524,-3.53759 8.07838,-6.29934 -0.84662,-1.36986 -0.0828,-2.43783 1.74354,-2.43783 5.47298,0 16.1436,-10.53379 21.15293,-20.8817 3.97951,-8.22057 5.7681,-9.81592 11.00486,-9.81592 3.43918,0 6.83864,0.9475 7.55435,2.10555 1.99062,3.22089 -10.88675,27.13556 -18.95769,35.2065 -7.82728,7.82728 -18.57791,13.14702 -26.41627,13.07159 -2.75219,-0.0265 -9.10002,-1.90802 -14.10629,-4.18119 z m 40.96508,-22.52585 c 3.58009,-4.94217 6.50925,-10.24916 6.50925,-11.7933 0,-1.54415 2.14281,-3.12285 4.7618,-3.50822 7.72604,-1.13685 7.56796,-6.18239 -0.1937,-6.18239 -5.54696,0 -6.76226,0.88576 -6.76898,4.93355 -0.01,5.94875 -5.85141,15.81334 -14.47417,24.44257 -5.34613,5.35013 -5.55856,5.93782 -1.34581,3.72323 2.7513,-1.44632 7.93152,-6.67327 11.51161,-11.61544 z m -103.125081,13.69653 -5.481716,-1.85301 6.159294,-0.21856 c 3.505362,-0.12439 5.575381,-1.16336 4.804139,-2.41126 -0.781778,-1.26494 1.276393,-2.19268 4.864425,-2.19268 7.843328,0 15.018169,-4.96275 19.385876,-13.40896 3.273126,-6.32953 10.917711,-60.69191 8.828455,-62.78117 -0.563579,-0.56358 -14.340363,3.42647 -30.615075,8.86677 l -29.590387,9.89147 -2.333625,-6.69424 C 17.155242,140.0363 17.112456,140.07151 53.223105,127.71307 L 86.92119,116.1803 88.200706,102.47826 c 3.285855,-35.187444 22.200104,-63.029265 42.818724,-63.029265 10.32072,0 19.50204,6.403541 26.43625,18.438042 6.78304,11.772124 5.5809,13.063713 -1.65229,1.775257 C 147.5945,46.85114 140.71484,40.770555 137.7657,43.719696 c -1.54282,1.542827 -0.48691,3.410951 3.34835,5.923912 5.90158,3.866859 14.8352,16.616575 17.474,24.938206 1.35433,4.270957 0.78197,4.933545 -4.26174,4.933545 -3.30052,0 -7.69839,-2.138698 -10.14499,-4.933545 l -4.31881,-4.933544 3.42686,5.656749 c 1.88477,3.111212 2.74432,6.339292 1.9101,7.173508 -0.83422,0.834219 0.39571,1.339146 2.73317,1.122066 9.71403,-0.902152 14.11776,0.385406 14.15059,4.137341 0.0266,3.034805 0.4338,3.20532 1.94753,0.815427 1.99863,-3.155445 6.78964,-1.614164 6.78964,2.184243 0,1.205977 -0.74003,1.731992 -1.64452,1.168921 -0.90448,-0.563071 -1.3208,6.839511 -0.92515,16.450185 l 0.71936,17.47395 -9.49011,-0.68261 c -8.29192,-0.59643 -9.56301,-1.37472 -10.06757,-6.16433 -2.43769,-23.140123 -2.90235,-24.687004 -6.15114,-20.477651 -1.71176,2.217871 -5.23485,10.847961 -7.82908,19.177971 -5.60829,18.00812 -5.98226,17.49567 18.62061,25.51578 15.55437,5.07046 16.44524,5.70552 15.24419,10.86689 -0.70157,3.01494 -1.67481,6.19594 -2.16275,7.06889 -0.48794,0.87295 -8.9274,-1.34714 -18.75437,-4.93354 -9.82696,-3.5864 -18.1717,-6.52073 -18.54386,-6.52073 -0.37216,0 -0.67666,2.30839 -0.67666,5.12976 0,4.30726 -6.99266,10.21905 -12.08742,10.21905 -0.50471,0 -1.56849,-4.90625 -2.36396,-10.90278 -1.0771,-8.11962 -2.53788,-11.24923 -5.72248,-12.25998 -2.35189,-0.74646 -4.81047,-0.82291 -5.4635,-0.16989 -0.65302,0.65303 -2.71887,12.73102 -4.590781,26.83998 -3.3959,25.59574 -3.39242,25.67346 1.567101,35.02224 2.87994,5.42874 7.8776,10.80343 11.88225,12.77865 3.80144,1.875 5.31803,3.43155 3.3702,3.45901 -1.94782,0.0275 -6.05728,-1.92899 -9.13212,-4.34766 -4.06632,-3.19857 -5.87375,-3.64695 -6.629011,-1.64451 -0.57112,1.51419 -2.76741,-1.19376 -4.88066,-6.01767 -3.515832,-8.02559 -3.608226,-11.28566 -1.08749,-38.37202 1.51513,-16.2807 3.48209,-30.94577 4.37103,-32.58904 2.172031,-4.01515 -2.39412,-13.41889 -6.526142,-13.44027 -3.592866,-0.0186 -65.371648,20.78722 -67.224112,22.63969 -0.62275,0.62275 -0.497162,3.13333 0.279085,5.57907 1.359067,4.28204 2.592855,4.03867 33.300178,-6.56859 17.538851,-6.05847 32.169312,-10.69862 32.512131,-10.31145 1.692092,1.91099 -9.567645,69.55343 -12.527831,75.26047 -6.884593,13.27303 -19.2836,18.76788 -32.368559,14.34474 z m 72.358661,-97.74266 c 0,-1.84783 -2.2201,-4.25206 -4.93355,-5.34274 -2.86712,-1.15244 -3.55593,-2.05693 -1.64451,-2.15945 1.80897,-0.097 5.59902,-5.51388 8.42233,-12.03745 2.82332,-6.52358 8.46646,-15.755086 12.54031,-20.51447 7.07059,-8.260392 7.22796,-8.815469 3.46479,-12.221088 -5.16589,-4.675067 -11.91287,-4.530597 -16.32944,0.349654 -5.75721,6.361653 -12.0743,22.7555 -12.85406,33.358364 -0.3991,5.42689 -2.18469,11.00556 -3.96797,12.39704 -2.70942,2.11412 -1.98864,3.0758 4.38537,5.85102 9.89764,4.30939 10.91673,4.33918 10.91673,0.31912 z m -21.926871,-7.60375 c 0,-1.20598 -0.98671,-2.19269 -2.19268,-2.19269 -1.205981,0 -2.19269,0.98671 -2.19269,2.19269 0,1.20598 0.986709,2.19269 2.19269,2.19269 1.20597,0 2.19268,-0.98671 2.19268,-2.19269 z m 5.689801,-14.9808 c 1.63529,-7.982963 1.49455,-11.226802 -0.57079,-13.156118 -4.045441,-3.779014 -4.376521,-3.441854 -7.051391,7.181015 -3.377734,13.414203 -3.092137,16.570533 1.49937,16.570533 2.96329,0 4.495511,-2.65148 6.122811,-10.59543 z m 49.10206,-12.920038 c -2.36167,-3.679918 -2.42939,-3.673158 -1.23659,0.123404 0.69404,2.209097 1.40974,6.649287 1.59043,9.867094 l 0.32854,5.85056 0.90806,-5.97397 c 0.49943,-3.285682 -0.21627,-7.725873 -1.59044,-9.867088 z m 39.04166,75.693368 c -4.15677,-3.9753 -9.3576,-10.32597 -11.5574,-14.11259 -2.1998,-3.78662 -7.05789,-8.45146 -10.79575,-10.36631 l -6.79611,-3.48154 6.31141,1.35575 c 5.56574,1.19557 6.05434,0.89639 4.13557,-2.53225 -1.41116,-2.52161 -1.44215,-7.06091 -0.0882,-12.91631 1.1482,-4.96557 1.57162,-14.27596 0.94094,-20.68975 -0.95783,-9.740722 -0.64887,-11.248278 1.87582,-9.152971 5.83311,4.84106 13.98557,35.711851 14.66846,55.544871 0.27391,7.95502 0.63344,8.36779 6.53419,7.50175 6.07569,-0.89173 6.20609,-0.70455 4.8282,6.93058 -0.77888,4.31588 -1.65986,8.13946 -1.95775,8.49683 -0.29789,0.35737 -3.94261,-2.60275 -8.09938,-6.57806 z m 7.45753,-26.96201 c 0.0447,-3.61793 0.53611,-4.83254 1.09205,-2.69912 0.55594,2.13341 0.51938,5.09353 -0.0812,6.57806 -0.60064,1.48451 -1.0555,-0.261 -1.01081,-3.87894 z m -47.57022,-4.46253 c -5.48307,-2.64097 -5.66557,-2.94536 -1.09635,-1.82855 6.21298,1.51857 13.19668,5.07809 9.86709,5.02916 -1.20598,-0.0178 -5.15281,-1.45799 -8.77074,-3.20061 z m -14.25247,-5.40456 c -1.80896,-1.16904 -2.30232,-2.12553 -1.09634,-2.12553 1.20598,0 3.67275,0.95649 5.48172,2.12553 1.80896,1.16905 2.30232,2.12554 1.09634,2.12554 -1.20598,0 -3.67275,-0.95649 -5.48172,-2.12554 z M 178.8454,89.609798 c -1.89354,-2.889902 -6.44721,-6.58425 -10.11927,-8.209662 -4.032,-1.784735 -6.67648,-4.591591 -6.67648,-7.086424 0,-3.809974 0.52081,-3.725749 6.69938,1.083433 3.68466,2.868006 8.7151,8.421362 11.17876,12.340789 5.12493,8.153244 4.1444,9.848958 -1.08239,1.871864 z"
       id="path66"
       inkscape:connector-curvature="0" />
  </g>
</svg>
