<?xml version="1.0" encoding="UTF-8" standalone="no"?>
<svg
   xmlns:dc="http://purl.org/dc/elements/1.1/"
   xmlns:cc="http://creativecommons.org/ns#"
   xmlns:rdf="http://www.w3.org/1999/02/22-rdf-syntax-ns#"
   xmlns:svg="http://www.w3.org/2000/svg"
   xmlns="http://www.w3.org/2000/svg"
   xmlns:sodipodi="http://sodipodi.sourceforge.net/DTD/sodipodi-0.dtd"
   xmlns:inkscape="http://www.inkscape.org/namespaces/inkscape"
   width="210mm"
   height="297mm"
   viewBox="0 0 210 297"
   version="1.1"
   id="svg8"
   sodipodi:docname="top-panel.svg"
   inkscape:version="1.0beta1 (32d4812, 2019-09-19)">
  <defs
     id="defs2" />
  <sodipodi:namedview
     id="base"
     pagecolor="#ffffff"
     bordercolor="#666666"
     borderopacity="1.0"
     inkscape:pageopacity="0.0"
     inkscape:pageshadow="2"
     inkscape:zoom="1.7432712"
     inkscape:cx="68.803697"
     inkscape:cy="434.46041"
     inkscape:document-units="mm"
     inkscape:current-layer="layer1"
     inkscape:document-rotation="0"
     showgrid="false"
     inkscape:window-width="1440"
     inkscape:window-height="855"
     inkscape:window-x="0"
     inkscape:window-y="23"
     inkscape:window-maximized="0" />
  <metadata
     id="metadata5">
    <rdf:RDF>
      <cc:Work
         rdf:about="">
        <dc:format>image/svg+xml</dc:format>
        <dc:type
           rdf:resource="http://purl.org/dc/dcmitype/StillImage" />
      </cc:Work>
    </rdf:RDF>
  </metadata>
  <g
     inkscape:label="Layer 1"
     inkscape:groupmode="layer"
     id="layer1">
    <path
       transform="scale(0.26458333)"
       d="M 387.19336 302.36328 A 15.11811 15.11811 0 0 0 374.30859 309.92188 L 59.042969 309.92188 A 15.11811 15.11811 0 0 0 47.244141 304.25391 A 15.11811 15.11811 0 0 0 47.037109 304.25391 A 15.11811 15.11811 0 0 0 32.126953 319.37109 A 15.11811 15.11811 0 0 0 37.794922 331.16992 L 37.794922 534.3418 A 15.119034 15.11811 0 0 0 32.126953 546.14258 A 15.119034 15.11811 0 0 0 47.244141 561.25977 A 15.119034 15.11811 0 0 0 59.042969 555.5918 L 375.60156 555.5918 A 15.119034 15.11811 0 0 0 387.40234 561.25977 A 15.119034 15.11811 0 0 0 402.51953 546.14258 A 15.119034 15.11811 0 0 0 387.40234 531.02539 A 15.119034 15.11811 0 0 0 387.24414 531.02539 L 387.19531 531.02539 L 381.73242 531.02539 L 381.73242 493.22852 L 396.84961 493.22852 L 396.84961 472.44141 L 381.73242 472.44141 L 381.73242 393.07227 L 396.84961 393.07227 L 396.84961 370.39453 L 381.73242 370.39453 L 381.73242 332.59961 L 387.19336 332.59961 L 387.19336 332.5957 A 15.11811 15.11811 0 0 0 387.40039 332.59766 A 15.11811 15.11811 0 0 0 402.51758 317.48047 A 15.11811 15.11811 0 0 0 387.40039 302.36328 A 15.11811 15.11811 0 0 0 387.19336 302.36328 z M 387.28516 308.97656 A 8.503936 8.503936 0 0 1 387.40234 308.97656 A 8.503936 8.503936 0 0 1 395.90625 317.48047 A 8.503936 8.503936 0 0 1 387.40234 325.98438 A 8.503936 8.503936 0 0 1 378.89844 317.48047 A 8.503936 8.503936 0 0 1 387.28516 308.97656 z M 47.126953 310.86719 A 8.5039359 8.5039359 0 0 1 47.244141 310.86719 A 8.5039359 8.5039359 0 0 1 55.748047 319.37109 A 8.5039359 8.5039359 0 0 1 47.244141 327.875 A 8.5039359 8.5039359 0 0 1 38.740234 319.37109 A 8.5039359 8.5039359 0 0 1 47.126953 310.86719 z M 204.53516 332.13477 L 211.6543 332.13477 L 211.6543 408.18945 L 204.53516 408.18945 L 204.53516 332.13477 z M 151.97461 415.55469 A 5.8582672 5.8582672 0 0 1 152.01758 415.55469 A 5.8582672 5.8582672 0 0 1 157.875 421.41211 A 5.8582672 5.8582672 0 0 1 152.01758 427.27148 A 5.8582672 5.8582672 0 0 1 146.1582 421.41211 A 5.8582672 5.8582672 0 0 1 151.97461 415.55469 z M 239.0918 415.55469 A 5.8582673 5.8582673 0 0 1 239.13477 415.55469 A 5.8582673 5.8582673 0 0 1 244.99414 421.41211 A 5.8582673 5.8582673 0 0 1 239.13477 427.27148 A 5.8582673 5.8582673 0 0 1 233.27734 421.41211 A 5.8582673 5.8582673 0 0 1 239.0918 415.55469 z M 141.68164 428.75586 L 249.39844 428.75586 L 249.39844 502.45703 L 141.68164 502.45703 L 141.68164 428.75586 z M 151.97461 505.50781 A 5.8582674 5.8582674 0 0 1 152.01758 505.50781 A 5.8582674 5.8582674 0 0 1 157.875 511.36523 A 5.8582674 5.8582674 0 0 1 152.01758 517.22266 A 5.8582674 5.8582674 0 0 1 146.1582 511.36523 A 5.8582674 5.8582674 0 0 1 151.97461 505.50781 z M 239.0918 505.50781 A 5.8582675 5.8582675 0 0 1 239.13477 505.50781 A 5.8582675 5.8582675 0 0 1 244.99414 511.36523 A 5.8582675 5.8582675 0 0 1 239.13477 517.22266 A 5.8582675 5.8582675 0 0 1 233.27734 511.36523 A 5.8582675 5.8582675 0 0 1 239.0918 505.50781 z M 47.126953 537.63867 A 8.5039361 8.5039361 0 0 1 47.244141 537.63867 A 8.5039361 8.5039361 0 0 1 55.748047 546.14258 A 8.5039361 8.5039361 0 0 1 47.244141 554.64648 A 8.5039361 8.5039361 0 0 1 38.740234 546.14258 A 8.5039361 8.5039361 0 0 1 47.126953 537.63867 z M 387.28516 537.63867 A 8.5039362 8.5039362 0 0 1 387.40234 537.63867 A 8.5039362 8.5039362 0 0 1 395.90625 546.14258 A 8.5039362 8.5039362 0 0 1 387.40234 554.64648 A 8.5039362 8.5039362 0 0 1 378.89844 546.14258 A 8.5039362 8.5039362 0 0 1 387.28516 537.63867 z "
       style="fill:#ff6000;stroke-width:1.31782"
       id="rect10" />
  </g>
</svg>
