<?xml version="1.0" encoding="UTF-8" standalone="no"?>
<svg
   xmlns:dc="http://purl.org/dc/elements/1.1/"
   xmlns:cc="http://creativecommons.org/ns#"
   xmlns:rdf="http://www.w3.org/1999/02/22-rdf-syntax-ns#"
   xmlns:svg="http://www.w3.org/2000/svg"
   xmlns="http://www.w3.org/2000/svg"
   xmlns:sodipodi="http://sodipodi.sourceforge.net/DTD/sodipodi-0.dtd"
   xmlns:inkscape="http://www.inkscape.org/namespaces/inkscape"
   inkscape:version="1.0beta1 (32d4812, 2019-09-19)"
   sodipodi:docname="top-panel.svg"
   id="svg8"
   version="1.1"
   viewBox="0 0 210 297"
   height="297mm"
   width="210mm">
  <defs
     id="defs2" />
  <sodipodi:namedview
     inkscape:window-maximized="0"
     inkscape:window-y="23"
     inkscape:window-x="0"
     inkscape:window-height="855"
     inkscape:window-width="1440"
     showgrid="false"
     inkscape:document-rotation="0"
     inkscape:current-layer="layer1"
     inkscape:document-units="mm"
     inkscape:cy="190.43563"
     inkscape:cx="290.61184"
     inkscape:zoom="1.618998"
     inkscape:pageshadow="2"
     inkscape:pageopacity="0.0"
     borderopacity="1.0"
     bordercolor="#666666"
     pagecolor="#ffffff"
     id="base" />
  <metadata
     id="metadata5">
    <rdf:RDF>
      <cc:Work
         rdf:about="">
        <dc:format>image/svg+xml</dc:format>
        <dc:type
           rdf:resource="http://purl.org/dc/dcmitype/StillImage" />
      </cc:Work>
    </rdf:RDF>
  </metadata>
  <g
     id="layer1"
     inkscape:groupmode="layer"
     inkscape:label="Layer 1">
    <path
       transform="scale(0.26458333)"
       d="M 387.19336 30.236328 A 15.11811 15.11811 0 0 0 374.30859 37.794922 L 59.042969 37.794922 A 15.11811 15.11811 0 0 0 47.244141 32.126953 A 15.11811 15.11811 0 0 0 47.037109 32.126953 A 15.11811 15.11811 0 0 0 32.126953 47.244141 A 15.11811 15.11811 0 0 0 37.794922 59.042969 L 37.794922 262.21484 A 15.119034 15.11811 0 0 0 32.126953 274.01562 A 15.119034 15.11811 0 0 0 47.244141 289.13281 A 15.119034 15.11811 0 0 0 59.042969 283.46484 L 375.60156 283.46484 A 15.119034 15.11811 0 0 0 387.40234 289.13281 A 15.119034 15.11811 0 0 0 402.51953 274.01562 A 15.119034 15.11811 0 0 0 387.40234 258.89844 A 15.119034 15.11811 0 0 0 387.24414 258.89844 L 387.19531 258.89844 L 381.73242 258.89844 L 381.73242 221.10156 L 396.84961 221.10156 L 396.84961 200.31445 L 381.73242 200.31445 L 381.73242 120.94531 L 396.84961 120.94531 L 396.84961 98.267578 L 381.73242 98.267578 L 381.73242 60.472656 L 387.19336 60.472656 L 387.19336 60.46875 A 15.11811 15.11811 0 0 0 387.40039 60.470703 A 15.11811 15.11811 0 0 0 402.51758 45.353516 A 15.11811 15.11811 0 0 0 387.40039 30.236328 A 15.11811 15.11811 0 0 0 387.19336 30.236328 z M 387.31836 37.794922 A 7.5590545 7.5590545 0 0 1 387.40039 37.794922 A 7.5590545 7.5590545 0 0 1 394.95898 45.353516 A 7.5590545 7.5590545 0 0 1 387.40039 52.912109 A 7.5590545 7.5590545 0 0 1 379.8418 45.353516 A 7.5590545 7.5590545 0 0 1 387.31836 37.794922 z M 47.162109 39.685547 A 7.5590543 7.5590543 0 0 1 47.244141 39.685547 A 7.5590543 7.5590543 0 0 1 54.802734 47.244141 A 7.5590543 7.5590543 0 0 1 47.244141 54.802734 A 7.5590543 7.5590543 0 0 1 39.685547 47.244141 A 7.5590543 7.5590543 0 0 1 47.162109 39.685547 z M 196.53516 52.914062 L 211.6543 52.914062 L 211.6543 136.0625 L 196.53516 136.0625 L 196.53516 52.914062 z M 141.67969 147.40234 A 3.7795276 3.7795276 0 0 1 141.73242 147.40234 A 3.7795276 3.7795276 0 0 1 145.51172 151.18164 A 3.7795276 3.7795276 0 0 1 141.73242 154.96094 A 3.7795276 3.7795276 0 0 1 137.95312 151.18164 A 3.7795276 3.7795276 0 0 1 141.67969 147.40234 z M 228.60938 147.40234 A 3.7795276 3.7795276 0 0 1 228.66211 147.40234 A 3.7795276 3.7795276 0 0 1 232.44141 151.18164 A 3.7795276 3.7795276 0 0 1 228.66211 154.96094 A 3.7795276 3.7795276 0 0 1 224.88281 151.18164 A 3.7795276 3.7795276 0 0 1 228.60938 147.40234 z M 136.0625 170.07812 L 234.33008 170.07812 L 234.33008 226.77148 L 136.0625 226.77148 L 136.0625 170.07812 z M 141.68164 234.33008 A 3.7795276 3.7795276 0 0 1 141.73242 234.33008 A 3.7795276 3.7795276 0 0 1 145.51172 238.10938 A 3.7795276 3.7795276 0 0 1 141.73242 241.89062 A 3.7795276 3.7795276 0 0 1 137.95312 238.10938 A 3.7795276 3.7795276 0 0 1 141.68164 234.33008 z M 228.66211 234.33008 A 3.7795276 3.7795276 0 0 1 232.44141 238.10938 A 3.7795276 3.7795276 0 0 1 228.66211 241.89062 A 3.7795276 3.7795276 0 0 1 224.88281 238.10938 A 3.7795276 3.7795276 0 0 1 228.66211 234.33008 z M 47.162109 266.45703 A 7.5595166 7.5590543 0 0 1 47.244141 266.45703 A 7.5595166 7.5590543 0 0 1 54.802734 274.01562 A 7.5595166 7.5590543 0 0 1 47.244141 281.57422 A 7.5595166 7.5590543 0 0 1 39.685547 274.01562 A 7.5595166 7.5590543 0 0 1 47.162109 266.45703 z M 387.31836 266.45703 A 7.5595169 7.5590546 0 0 1 387.32031 266.45703 A 7.5595169 7.5590546 0 0 1 387.40234 266.45703 A 7.5595169 7.5590546 0 0 1 394.96094 274.01562 A 7.5595169 7.5590546 0 0 1 387.40234 281.57422 A 7.5595169 7.5590546 0 0 1 379.8418 274.01562 A 7.5595169 7.5590546 0 0 1 387.31836 266.45703 z "
       style="fill:#ff6000;stroke-width:1.31782"
       id="rect10" />
  </g>
</svg>
