<?xml version="1.0" encoding="UTF-8" standalone="no"?>
<svg
   xmlns:dc="http://purl.org/dc/elements/1.1/"
   xmlns:cc="http://creativecommons.org/ns#"
   xmlns:rdf="http://www.w3.org/1999/02/22-rdf-syntax-ns#"
   xmlns:svg="http://www.w3.org/2000/svg"
   xmlns="http://www.w3.org/2000/svg"
   xmlns:sodipodi="http://sodipodi.sourceforge.net/DTD/sodipodi-0.dtd"
   xmlns:inkscape="http://www.inkscape.org/namespaces/inkscape"
   inkscape:version="1.0beta1 (32d4812, 2019-09-19)"
   sodipodi:docname="top-panel.svg"
   id="svg8"
   version="1.1"
   viewBox="0 0 210 297"
   height="297mm"
   width="210mm">
  <defs
     id="defs2" />
  <sodipodi:namedview
     inkscape:window-maximized="0"
     inkscape:window-y="23"
     inkscape:window-x="0"
     inkscape:window-height="855"
     inkscape:window-width="1440"
     showgrid="false"
     inkscape:document-rotation="0"
     inkscape:current-layer="layer1"
     inkscape:document-units="mm"
     inkscape:cy="219.16347"
     inkscape:cx="200.58521"
     inkscape:zoom="1.3469005"
     inkscape:pageshadow="2"
     inkscape:pageopacity="0.0"
     borderopacity="1.0"
     bordercolor="#666666"
     pagecolor="#ffffff"
     id="base" />
  <metadata
     id="metadata5">
    <rdf:RDF>
      <cc:Work
         rdf:about="">
        <dc:format>image/svg+xml</dc:format>
        <dc:type
           rdf:resource="http://purl.org/dc/dcmitype/StillImage" />
      </cc:Work>
    </rdf:RDF>
  </metadata>
  <g
     id="layer1"
     inkscape:groupmode="layer"
     inkscape:label="Layer 1">
    <path
       transform="scale(0.26458333)"
       d="M 37.794922 37.794922 L 37.794922 283.46484 L 396.84961 283.46484 L 396.84961 258.89844 L 381.73242 258.89844 L 381.73242 221.10156 L 396.84961 221.10156 L 396.84961 200.31445 L 381.73242 200.31445 L 381.73242 120.94531 L 396.84961 120.94531 L 396.84961 98.267578 L 381.73242 98.267578 L 381.73242 60.472656 L 396.84961 60.472656 L 396.84961 37.794922 L 37.794922 37.794922 z M 196.53516 52.914062 L 211.6543 52.914062 L 211.6543 136.0625 L 196.53516 136.0625 L 196.53516 52.914062 z "
       style="fill:#ff6000;stroke-width:1.31782"
       id="rect10" />
    <path
       transform="scale(0.26458333)"
       d="M 47.037109 32.126953 A 15.11811 15.11811 0 0 0 32.126953 47.244141 A 15.11811 15.11811 0 0 0 47.244141 62.361328 A 15.11811 15.11811 0 0 0 62.361328 47.244141 A 15.11811 15.11811 0 0 0 47.244141 32.126953 A 15.11811 15.11811 0 0 0 47.037109 32.126953 z M 47.162109 39.685547 A 7.5590551 7.5590551 0 0 1 47.244141 39.685547 A 7.5590551 7.5590551 0 0 1 54.802734 47.244141 A 7.5590551 7.5590551 0 0 1 47.244141 54.802734 A 7.5590551 7.5590551 0 0 1 39.685547 47.244141 A 7.5590551 7.5590551 0 0 1 47.162109 39.685547 z "
       style="fill:#ff0000;stroke-width:0.714474"
       id="path12" />
    <path
       inkscape:connector-curvature="0"
       d="M 102.44498,8.0000938 A 3.9999999,3.9999999 0 0 0 98.5,11.99985 a 3.9999999,3.9999999 0 0 0 3.99975,3.999756 3.9999999,3.9999999 0 0 0 3.99976,-3.999756 3.9999999,3.9999999 0 0 0 -3.99976,-3.9997562 3.9999999,3.9999999 0 0 0 -0.0548,0 z m 0.0331,1.999878 a 2,2 0 0 1 0.0217,0 2,2 0 0 1 1.99988,1.9998782 2,2 0 0 1 -1.99988,1.999878 2,2 0 0 1 -1.99987,-1.999878 2,2 0 0 1 1.97817,-1.9998782 z"
       style="fill:#ff0000;stroke-width:0.189038"
       id="path21" />
    <path
       inkscape:connector-curvature="0"
       d="M 12.44522,68.500094 A 4.0002444,3.9999999 0 0 0 8.5,72.49985 a 4.0002444,3.9999999 0 0 0 4,3.999755 4.0002444,3.9999999 0 0 0 4,-3.999755 4.0002444,3.9999999 0 0 0 -4,-3.999756 4.0002444,3.9999999 0 0 0 -0.05478,0 z m 0.03307,1.999878 a 2.0001223,2 0 0 1 0.0217,0 2.0001223,2 0 0 1 2,1.999878 2.0001223,2 0 0 1 -2,1.999877 2.0001223,2 0 0 1 -2,-1.999877 2.0001223,2 0 0 1 1.978295,-1.999878 z"
       style="fill:#ff0000;stroke-width:0.189044"
       id="path23" />
    <path
       id="path25"
       style="fill:#ff0000;stroke-width:0.189044"
       d="M 102.44522,68.500094 A 4.0002444,3.9999999 0 0 0 98.5,72.49985 a 4.0002444,3.9999999 0 0 0 4,3.999755 4.0002444,3.9999999 0 0 0 4,-3.999755 4.0002444,3.9999999 0 0 0 -4,-3.999756 4.0002444,3.9999999 0 0 0 -0.0548,0 z m 0.0331,1.999878 a 2.0001223,2 0 0 1 0.0217,0 2.0001223,2 0 0 1 2,1.999878 2.0001223,2 0 0 1 -2,1.999877 2.0001223,2 0 0 1 -2,-1.999877 2.0001223,2 0 0 1 1.97829,-1.999878 z"
       inkscape:connector-curvature="0" />
  </g>
</svg>
